<svg xmlns="http://www.w3.org/2000/svg" viewBox="0 0 64 64" fill="none">
  <defs>
    <linearGradient id="cloudGrad" x1="0%" y1="0%" x2="100%" y2="100%">
      <stop offset="0%" stop-color="#FF9ECB" />
      <stop offset="50%" stop-color="#FF6B9F" />
      <stop offset="100%" stop-color="#F43F5E" />
    </linearGradient>
    <linearGradient id="needleGrad" x1="0%" y1="0%" x2="100%" y2="100%">
      <stop offset="0%" stop-color="#FBBF24" />
      <stop offset="100%" stop-color="#D97706" />
    </linearGradient>
  </defs>
  <!-- Knitting Needles crossed behind -->
  <line x1="8" y1="56" x2="56" y2="8" stroke="url(#needleGrad)" stroke-width="3.5" stroke-linecap="round" />
  <circle cx="56" cy="8" r="4.5" fill="#F59E0B" />
  <line x1="56" y1="56" x2="8" y2="8" stroke="url(#needleGrad)" stroke-width="3.5" stroke-linecap="round" />
  <circle cx="8" cy="8" r="4.5" fill="#F59E0B" />
  <!-- Fluffy Pink Cloud Body -->
  <path d="M47 44C51.4183 44 55 40.4183 55 36C55 31.8653 51.8617 28.4636 47.8344 28.048C46.8972 20.1652 40.1691 14 32 14C24.4754 14 18.1724 19.3496 16.5714 26.5413C12.3516 27.2755 9 30.9984 9 35.5C9 40.1944 12.8056 44 17.5 44H47Z" fill="url(#cloudGrad)" />
  <!-- Cute Face -->
  <circle cx="25" cy="31" r="2.2" fill="#881337" />
  <circle cx="39" cy="31" r="2.2" fill="#881337" />
  <path d="M30 35C30.8 36.5 33.2 36.5 34 35" stroke="#881337" stroke-width="2" stroke-linecap="round" fill="none" />
  <!-- Blush Cheeks -->
  <ellipse cx="20" cy="34" rx="3" ry="1.8" fill="#FFF1F2" opacity="0.8" />
  <ellipse cx="44" cy="34" rx="3" ry="1.8" fill="#FFF1F2" opacity="0.8" />
  <!-- Sparkles -->
  <path d="M48 18L49 21L52 22L49 23L48 26L47 23L44 22L47 21L48 18Z" fill="#FEF08A" />
</svg>
